# xmcd
#
# Track frame offsets:
#	150
#	14612
#	30767
#	48450
#	64280
#	79315
#	94179
#	108622
#	122422
#
# Disc length: 1815 seconds
# Revision: 0
# Processed by: cddbd v1.5.2PL0 Copyright (c) Steve Scherf et al.
# Submitted via: dBpowerAMP V12.0
#
DISCID=70071509
DTITLE=Kristy Deck - Sunbathin' In The Nude
DYEAR=2005
DGENRE=Country
TTITLE0=Here I Am
TTITLE1=Don't Lonely Me
TTITLE2=Sunbathin' In The Nude
TTITLE3=Almost Doesn't Count
TTITLE4=Your Eyes Give You A Way
TTITLE5=If Only In My Dreams
TTITLE6=I Just Want You
TTITLE7=Spare Me
TTITLE8=The Older Men Song
EXTD=
EXTT0=
EXTT1=
EXTT2=
EXTT3=
EXTT4=
EXTT5=
EXTT6=
EXTT7=
EXTT8=
PLAYORDER=
